HIERARCHY
ROOT Hips
{
  OFFSET 53.6708 91.6072 5.37163
  CHANNELS 6 Xposition Yposition Zposition Zrotation Xrotation Yrotation
  JOINT spine
  {
    OFFSET 0 6.84637 0.3937
    CHANNELS 3 Zrotation Xrotation Yrotation
    JOINT spine1
    {
      OFFSET 0 9.49621 0
      CHANNELS 3 Zrotation Xrotation Yrotation
      JOINT spine2
      {
        OFFSET 0 9.09909 0
        CHANNELS 3 Zrotation Xrotation Yrotation
        JOINT Neck
        {
          OFFSET 0 23.3612 1.11378
          CHANNELS 3 Zrotation Xrotation Yrotation
          JOINT Head
          {
            OFFSET 0 7.05802 0
            CHANNELS 3 Zrotation Xrotation Yrotation
            End Site
            {
              OFFSET 0 17.0844 -5.63419
            }
          }
        }
        JOINT RightShoulder
        {
          OFFSET -3.83136 9.82631 -0.533491
          CHANNELS 3 Zrotation Xrotation Yrotation
          JOINT RightArm
          {
            OFFSET 0 12.8881 0
            CHANNELS 3 Zrotation Xrotation Yrotation
            JOINT RightArmRoll
            {
              OFFSET 0 6.50617 0
              CHANNELS 3 Zrotation Xrotation Yrotation
              JOINT RightForeArm
              {
                OFFSET 0 18.9501 0
                CHANNELS 3 Zrotation Xrotation Yrotation
                JOINT RightForeArmRoll
                {
                  OFFSET 0 7.30092 0
                  CHANNELS 3 Zrotation Xrotation Yrotation
                  JOINT RightHand
                  {
                    OFFSET 0 14.6514 0
                    CHANNELS 3 Zrotation Xrotation Yrotation
                    End Site
                    {
                      OFFSET 0 0 0
                    }
                  }
                }
              }
            }
          }
        }
        JOINT LeftShoulder
        {
          OFFSET 3.83136 9.82631 -0.533491
          CHANNELS 3 Zrotation Xrotation Yrotation
          JOINT LeftArm
          {
            OFFSET 0 12.8881 0
            CHANNELS 3 Zrotation Xrotation Yrotation
            JOINT LeftArmRoll
            {
              OFFSET 0 6.50616 0
              CHANNELS 3 Zrotation Xrotation Yrotation
              JOINT LeftForeArm
              {
                OFFSET 0 18.9501 0
                CHANNELS 3 Zrotation Xrotation Yrotation
                JOINT LeftForeArmRoll
                {
                  OFFSET 0 7.30092 0
                  CHANNELS 3 Zrotation Xrotation Yrotation
                  JOINT LeftHand
                  {
                    OFFSET 0 14.6514 0
                    CHANNELS 3 Zrotation Xrotation Yrotation
                    End Site
                    {
                      OFFSET 0 0 0
                    }
                  }
                }
              }
            }
          }
        }
      }
    }
  }
  JOINT RightUpLeg
  {
    OFFSET -6.06837 -1.11278 -0.933477
    CHANNELS 3 Zrotation Xrotation Yrotation
    JOINT RightUpLegRoll
    {
      OFFSET 0 17.1796 0
      CHANNELS 3 Zrotation Xrotation Yrotation
      JOINT RightLeg
      {
        OFFSET 0 -21.2743 0
        CHANNELS 3 Zrotation Xrotation Yrotation
        JOINT RightLegRoll
        {
          OFFSET 0 21.3439 0
          CHANNELS 3 Zrotation Xrotation Yrotation
          JOINT RightFoot
          {
            OFFSET 0 17.7652 0
            CHANNELS 3 Zrotation Xrotation Yrotation
            JOINT RightToeBase
            {
              OFFSET 0 14.8508 0
              CHANNELS 3 Zrotation Xrotation Yrotation
              End Site
              {
                OFFSET 0.0062947 7.19213 -0.829005
              }
            }
          }
        }
      }
    }
  }
  JOINT LeftUpLeg
  {
    OFFSET 6.06837 -1.11278 -0.933477
    CHANNELS 3 Zrotation Xrotation Yrotation
    JOINT LeftUpLegRoll
    {
      OFFSET 0 17.1797 0
      CHANNELS 3 Zrotation Xrotation Yrotation
      JOINT LeftLeg
      {
        OFFSET 0 21.2742 0
        CHANNELS 3 Zrotation Xrotation Yrotation
        JOINT LeftLegRoll
        {
          OFFSET 0 21.5412 0
          CHANNELS 3 Zrotation Xrotation Yrotation
          JOINT LeftFoot
          {
            OFFSET 0 17.5679 0
            CHANNELS 3 Zrotation Xrotation Yrotation
            JOINT LeftToeBase
            {
              OFFSET 0 14.8508 0
              CHANNELS 3 Zrotation Xrotation Yrotation
              End Site
              {
                OFFSET -0.0282102 7.19214 -0.829005
              }
            }
          }
        }
      }
    }
  }
}
MOTION
Frames: 6
Frame Time: 0.00208333
53.9065 91.5626 5.38405 -1.48382 5.0008 -5.66013 -0.652185 -4.17008 0.0335528 -1.29646 -4.3374 0.106641 -1.2971 -2.69257 0.128276 32.4442 19.6582 -10.8865 -27.991 5.0008 -0.422277 33.5465 -19.4509 -15.7279 -43.9579 37.6461 129.685 -3.52868e-007 -1.27057e-006 -6.51618e-006 -10.6071 11.8548 0.803161 -4.05345e-006 -2.43137e-006 -3 8.02901 -4.95145 0.697677 13.0518 -25.2433 43.634 59.3009 40.2019 -168.697 3.18055e-015 7.67451e-007 4.77083e-015 21.9215 15.9848 -8.19142 1.04048e-005 -4.60926e-006 3.0013 -8.02899 -4.95142 -0.697672 177.758 8.38775 -1.09048 180 7.01587e-015 179.114 178.623 4.89093 179.925 -2.20527e-006 -3.53308e-006 0.0335592 -18.4845 67.8099 19.3705 8.13649 25.2327 -3.48773 -172.425 4.95653 -1.50875 4.54188e-006 -4.6773e-006 -0.956723 -2.13035 -4.29912 0.0122418 -2.5498e-006 1.24535e-006 -0.0456166 18.6652 68.0922 -19.599 -8.13649 25.2327 3.48774 
53.903 91.5771 5.38785 -1.48701 4.99085 -5.65204 -0.651545 -4.17087 0.0332402 -1.29523 -4.33917 0.106215 -1.29563 -2.69434 0.127842 32.506 19.6163 -10.8919 -28.0494 5.04345 -0.407367 33.6261 -19.4177 -15.6805 -44.1197 37.5542 129.652 -3.52868e-007 -1.27057e-006 -6.51618e-006 -10.5438 11.8875 0.794746 -4.05345e-006 -2.43137e-006 -3 8.02901 -4.95145 0.697677 13.0726 -25.2303 43.6204 59.348 40.1601 -168.709 -8.52042e-023 7.67451e-007 6.36111e-015 21.9104 16.0222 -8.19853 1.04048e-005 -4.60926e-006 3.00129 -8.02899 -4.95142 -0.697672 177.76 8.37354 -1.08903 180 7.01587e-015 179.114 178.62 4.89222 179.925 -2.20527e-006 -3.53308e-006 0.0335564 -18.4842 67.8096 19.3703 8.13649 25.2327 -3.48773 -172.422 4.94523 -1.50999 4.54188e-006 -4.6773e-006 -0.95688 -2.12893 -4.30148 0.0121987 -2.5498e-006 1.24535e-006 -0.0454861 18.6671 68.0947 -19.6011 -8.13649 25.2327 3.48774 
53.8986 91.5745 5.38943 -1.49035 4.98092 -5.64354 -0.6508 -4.17174 0.0329269 -1.29381 -4.34119 0.105693 -1.29402 -2.69636 0.127306 32.5699 19.579 -10.8996 -28.11 5.0814 -0.394105 33.6932 -19.3869 -15.6375 -44.2741 37.4755 129.639 -3.52868e-007 -1.27057e-006 -6.51618e-006 -10.4873 11.9215 0.788069 -4.05345e-006 -2.43137e-006 -3 8.02901 -4.95145 0.697677 13.0925 -25.2163 43.6037 59.3928 40.1237 -168.72 -3.18055e-015 7.67451e-007 6.36111e-015 21.8972 16.0616 -8.20534 1.04048e-005 -4.60926e-006 3.00128 -8.02899 -4.95142 -0.697672 177.763 8.35918 -1.08744 180 7.01587e-015 179.114 178.617 4.89329 179.925 -2.20527e-006 -3.53308e-006 0.0335536 -18.4839 67.8093 19.37 8.13649 25.2327 -3.48773 -172.419 4.9342 -1.51135 4.54188e-006 -4.6773e-006 -0.957039 -2.12752 -4.30418 0.0121458 -2.5498e-006 1.24535e-006 -0.0453629 18.669 68.0973 -19.6032 -8.13649 25.2327 3.48774 
53.8978 91.5644 5.39691 -1.49379 4.97111 -5.63461 -0.649946 -4.17274 0.0326121 -1.29221 -4.34355 0.105054 -1.29226 -2.69872 0.126647 32.6366 19.5471 -10.9102 -28.1736 5.11386 -0.382711 33.7453 -19.359 -15.6002 -44.4209 37.4122 129.651 -3.52868e-007 -1.27057e-006 -6.51618e-006 -10.4388 11.9576 0.783499 -4.05345e-006 -2.43137e-006 -3 8.02901 -4.95145 0.697677 13.1115 -25.2013 43.5838 59.4353 40.0931 -168.731 2.1301e-023 7.67451e-007 -1.59028e-015 21.882 16.1039 -8.21204 1.04048e-005 -4.60926e-006 3.00127 -8.02899 -4.95142 -0.697672 177.766 8.34475 -1.08571 180 7.01587e-015 179.114 178.614 4.89407 179.925 -2.20527e-006 -3.53308e-006 0.0335508 -18.4836 67.809 19.3697 8.13649 25.2327 -3.48773 -172.415 4.92351 -1.51282 4.54188e-006 -4.6773e-006 -0.957199 -2.12614 -4.30715 0.0120845 -2.5498e-006 1.24535e-006 -0.0452479 18.6709 68.1 -19.6054 -8.13649 25.2327 3.48774 
53.8933 91.5677 5.40348 -1.4973 4.96134 -5.62521 -0.648937 -4.17381 0.0322938 -1.29035 -4.34622 0.104283 -1.2903 -2.70139 0.125848 32.7046 19.5197 -10.9229 -28.2395 5.14214 -0.372955 33.7835 -19.3334 -15.5675 -44.5603 37.3636 129.687 -3.52868e-007 -1.27057e-006 -6.51618e-006 -10.3979 11.9961 0.781028 -4.05345e-006 -2.43137e-006 -3 8.02901 -4.95145 0.697677 13.129 -25.1853 43.5599 59.4748 40.0687 -168.741 2.22639e-014 7.67451e-007 1.11319e-014 21.8644 16.1513 -8.2193 1.04048e-005 -4.60926e-006 3.00126 -8.02899 -4.95142 -0.697672 177.768 8.33016 -1.08366 180 7.01587e-015 179.114 178.61 4.8946 179.926 -2.20527e-006 -3.53308e-006 0.033548 -18.4833 67.8087 19.3694 8.13649 25.2327 -3.48773 -172.412 4.91313 -1.5144 4.54188e-006 -4.6773e-006 -0.957364 -2.12482 -4.31052 0.0119885 -2.5498e-006 1.24535e-006 -0.0451282 18.673 68.1028 -19.6077 -8.13649 25.2327 3.48774 
53.8911 91.5636 5.40874 -1.50086 4.95141 -5.61531 -0.64774 -4.17488 0.0319716 -1.2882 -4.34907 0.103386 -1.28807 -2.70424 0.124915 32.7723 19.4949 -10.9369 -28.3065 5.16837 -0.364357 33.8122 -19.3085 -15.5372 -44.6933 37.3263 129.74 -3.52868e-007 -1.27057e-006 -6.51618e-006 -10.3627 12.0364 0.780184 -4.05345e-006 -2.43137e-006 -3 8.02901 -4.95145 0.697677 13.1441 -25.1681 43.5315 59.5102 40.0504 -168.749 2.54444e-014 7.67451e-007 6.36111e-015 21.8444 16.2048 -8.22746 1.04048e-005 -4.60926e-006 3.00125 -8.02899 -4.95142 -0.697672 177.77 8.31519 -1.0812 180 7.01587e-015 179.114 178.606 4.89483 179.926 -2.20527e-006 -3.53308e-006 0.0335453 -18.483 67.8084 19.3692 8.13649 25.2327 -3.48773 -172.408 4.90299 -1.51606 4.54188e-006 -4.6773e-006 -0.957536 -2.12357 -4.31451 0.0118327 -2.5498e-006 1.24535e-006 -0.0449914 18.6754 68.106 -19.6104 -8.13649 25.2327 3.48774 
